<?xml version="1.0" standalone="no"?>
<!DOCTYPE svg PUBLIC "-//W3C//DTD SVG 20010904//EN"
 "http://www.w3.org/TR/2001/REC-SVG-20010904/DTD/svg10.dtd">
<svg version="1.0" xmlns="http://www.w3.org/2000/svg"
 width="454.000000pt" height="340.000000pt" viewBox="0 0 454.000000 340.000000"
 preserveAspectRatio="xMidYMid meet">

<g transform="translate(0.000000,340.000000) scale(0.100000,-0.100000)"
fill="#000000" stroke="none">
<path d="M2272 2239 c-46 -14 -106 -77 -126 -134 -29 -88 -18 -199 27 -266 51
-75 135 -103 230 -75 79 23 81 28 45 124 l-32 82 -33 -6 c-65 -12 -105 15 -83
57 9 15 22 19 63 19 l53 0 32 77 c36 89 34 96 -41 118 -57 17 -87 18 -135 4z"/>
<path d="M3642 2238 c-17 -17 -15 -73 3 -88 20 -16 43 -6 57 24 9 20 8 30 -6
51 -18 27 -35 32 -54 13z"/>
<path d="M3345 2138 c-96 -98 -99 -103 -72 -106 26 -3 27 -5 27 -70 0 -85 12
-128 47 -164 32 -34 79 -44 127 -28 l36 12 0 67 c0 66 0 67 -27 66 -27 0 -28
2 -31 58 l-3 57 31 0 c30 0 30 0 30 55 0 54 0 55 -29 55 -29 0 -30 2 -33 51
l-3 50 -100 -103z"/>
<path d="M715 2131 c-102 -46 -127 -232 -44 -326 102 -116 269 -26 269 145 0
84 -44 160 -107 186 -43 18 -70 17 -118 -5z m90 -176 c0 -35 -3 -40 -24 -40
-28 0 -42 30 -30 63 6 17 15 22 31 20 20 -3 23 -9 23 -43z"/>
<path d="M1052 2139 c-43 -13 -72 -60 -72 -120 0 -56 22 -88 79 -113 44 -20
57 -41 40 -62 -17 -21 -44 -17 -77 11 l-29 25 -13 -45 c-7 -25 -11 -48 -8 -50
8 -8 123 -35 150 -35 46 0 95 26 112 59 9 16 16 52 16 79 0 62 -23 93 -85 116
-47 18 -62 50 -29 63 13 5 26 1 76 -25 11 -6 31 69 20 80 -24 24 -122 34 -180
17z"/>
<path d="M1362 2139 c-43 -13 -72 -60 -72 -120 0 -56 22 -88 79 -113 44 -20
57 -41 40 -62 -17 -21 -44 -17 -77 11 l-29 25 -13 -45 c-7 -25 -11 -48 -8 -50
8 -8 123 -35 150 -35 46 0 95 26 112 59 9 16 16 52 16 79 0 62 -23 93 -85 116
-47 18 -62 50 -29 63 13 5 26 1 76 -25 11 -6 31 69 20 80 -24 24 -122 34 -180
17z"/>
<path d="M2592 2126 c-63 -21 -72 -32 -72 -88 0 -44 2 -49 18 -42 39 17 93 16
112 -1 30 -27 25 -32 -31 -31 -44 1 -54 -3 -75 -27 -34 -40 -34 -118 1 -152
28 -29 54 -31 95 -10 27 14 30 14 30 0 0 -12 14 -15 70 -15 l70 0 0 135 c0
148 -10 192 -53 220 -34 22 -114 28 -165 11z m73 -251 c0 -25 -4 -30 -25 -30
-16 0 -26 6 -28 18 -6 30 6 49 30 45 18 -2 23 -9 23 -33z"/>
<path d="M2880 1950 l0 -190 75 0 75 0 0 130 c0 109 3 132 16 137 31 12 39
-16 42 -142 l4 -125 64 0 64 0 0 146 c0 160 -10 202 -56 223 -35 15 -54 14
-97 -8 -36 -18 -37 -18 -37 0 0 17 -8 19 -75 19 l-75 0 0 -190z"/>
<path d="M3770 1950 l0 -190 75 0 75 0 0 130 c0 109 3 132 16 137 31 12 39
-16 42 -142 l4 -125 64 0 64 0 0 146 c0 160 -10 202 -56 223 -35 15 -54 14
-97 -8 -36 -18 -37 -18 -37 0 0 17 -8 19 -75 19 l-75 0 0 -190z"/>
<path d="M4242 2126 c-63 -21 -72 -32 -72 -88 0 -44 2 -49 18 -42 37 16 98 16
115 -1 27 -26 21 -32 -34 -31 -44 1 -54 -3 -75 -27 -34 -40 -34 -118 1 -152
28 -29 43 -30 90 -11 31 13 35 13 35 0 0 -11 16 -14 70 -14 l70 0 0 135 c0
148 -10 192 -53 220 -34 22 -114 28 -165 11z m76 -248 c-2 -28 -7 -33 -28 -33
-16 0 -26 6 -28 18 -6 30 6 47 33 47 24 0 26 -3 23 -32z"/>
<path d="M3560 1943 l0 -183 75 0 75 0 0 183 0 182 -75 0 -75 0 0 -182z"/>
</g>
</svg>
